<svg version="1.2" baseProfile="tiny-ps" xmlns="http://www.w3.org/2000/svg" viewBox="0 0 1080 1296" width="1080" height="1296">
	<title>Vector Smart Object1-ai</title>
	<style>
		tspan { white-space:pre }
		.shp0 { fill: #372218 } 
	</style>
	<g id="Layer 1">
		<g id="&lt;Group&gt;">
			<path id="&lt;Compound Path&gt;" class="shp0" d="M551.25 535.5C551.25 541.71 546.21 546.75 540 546.75C533.78 546.75 528.75 541.71 528.75 535.5C528.75 529.29 533.78 524.25 540 524.25C546.21 524.25 551.25 529.29 551.25 535.5Z" />
			<path id="&lt;Compound Path&gt;" class="shp0" d="M641.25 535.5C641.25 541.71 636.21 546.75 630 546.75C623.78 546.75 618.75 541.71 618.75 535.5C618.75 529.29 623.78 524.25 630 524.25C636.21 524.25 641.25 529.29 641.25 535.5Z" />
			<path id="&lt;Compound Path&gt;" class="shp0" d="M596.25 513C596.25 519.21 591.21 524.25 585 524.25C578.78 524.25 573.75 519.21 573.75 513C573.75 506.79 578.78 501.75 585 501.75C591.21 501.75 596.25 506.79 596.25 513Z" />
			<path id="&lt;Compound Path&gt;" class="shp0" d="M506.25 513C506.25 519.21 501.21 524.25 495 524.25C488.79 524.25 483.75 519.21 483.75 513C483.75 506.79 488.79 501.75 495 501.75C501.21 501.75 506.25 506.79 506.25 513Z" />
			<path id="&lt;Compound Path&gt;" class="shp0" d="M461.25 535.5C461.25 541.71 456.21 546.75 450 546.75C443.78 546.75 438.75 541.71 438.75 535.5C438.75 529.29 443.78 524.25 450 524.25C456.21 524.25 461.25 529.29 461.25 535.5Z" />
			<path id="&lt;Compound Path&gt;" fill-rule="evenodd" class="shp0" d="M698.25 725.33L698.25 749.29C704.11 749.68 708.75 754.54 708.75 760.5L708.75 783.75C708.75 814.77 683.52 840 652.5 840L427.5 840C396.48 840 371.25 814.77 371.25 783.75L371.25 760.5C371.25 754.29 376.28 749.25 382.5 749.25L382.5 725.5C362.74 720.76 348 702.95 348 681.75C348 660.55 362.74 642.74 382.5 638L382.5 614.25C376.28 614.25 371.25 609.21 371.25 603L371.25 579.75C371.25 511.52 426.77 456 495 456L585 456C653.23 456 708.75 511.52 708.75 579.75L708.75 603C708.75 609.21 703.71 614.25 697.5 614.25L697.5 638C717.26 642.74 732 660.55 732 681.75C732 702.68 717.64 720.32 698.25 725.33ZM675.75 749.25L675.75 726.75L641.25 726.75L641.25 749.25L675.75 749.25ZM687 659.25L641.25 659.25L641.25 704.25L687 704.25C699.41 704.25 709.5 694.16 709.5 681.75C709.5 669.34 699.41 659.25 687 659.25ZM393.75 591.75L686.25 591.75L686.25 579.75C686.25 523.92 640.83 478.5 585 478.5L495 478.5C439.17 478.5 393.75 523.92 393.75 579.75L393.75 591.75ZM405 614.25L405 636.75L472.5 636.75C478.71 636.75 483.75 641.79 483.75 648C483.75 654.2 488.8 659.25 495 659.25C501.2 659.25 506.25 654.2 506.25 648C506.25 641.79 511.28 636.75 517.5 636.75L585 636.75C591.21 636.75 596.25 641.79 596.25 648L596.25 760.5C596.25 766.7 601.3 771.75 607.5 771.75C613.7 771.75 618.75 766.7 618.75 760.5L618.75 648C618.75 641.79 623.78 636.75 630 636.75L675 636.75L675 614.25L405 614.25ZM393 704.25L573.75 704.25L573.75 659.25L526.82 659.25C522.18 672.35 509.67 681.75 495 681.75C480.33 681.75 467.82 672.35 463.18 659.25L393 659.25C380.59 659.25 370.5 669.34 370.5 681.75C370.5 694.16 380.59 704.25 393 704.25ZM405 749.25L573.75 749.25L573.75 726.75L405 726.75L405 749.25ZM686.25 771.75L639.32 771.75C634.67 784.84 622.17 794.25 607.5 794.25C592.83 794.25 580.33 784.84 575.68 771.75L393.75 771.75L393.75 783.75C393.75 802.36 408.89 817.5 427.5 817.5L652.5 817.5C671.11 817.5 686.25 802.36 686.25 783.75L686.25 771.75Z" />
		</g>
	</g>
</svg>